# xmcd
#
# Track frame offsets:
#	150
#	59044
#	102271
#	129974
#	173340
#	210221
#	243389
#
# Disc length: 3501 seconds
#
# Revision: 0
# Processed by: cddbd v1.5PL3 Copyright (c) Steve Scherf et al.
# Submitted via: EasyCDDAExtractor 5.0.4.1
#
DISCID=530dab07
DTITLE=Various Artist - 백인영 창작곡집
DYEAR=1900
DGENRE=
TTITLE0=백인영 류 18현 가야금 산조
TTITLE1=가시고기
TTITLE2=종이배
TTITLE3=낙엽
TTITLE4=멕시코에서 온 여인
TTITLE5=가야금 실내악단 예랑 - 흐름
TTITLE6=노을바람
EXTD=
EXTT0=
EXTT1=
EXTT2=
EXTT3=
EXTT4=
EXTT5=
EXTT6=
PLAYORDER=
